<!DOCTYPE svg PUBLIC "-//W3C//DTD SVG 1.1//EN" "http://www.w3.org/Graphics/SVG/1.1/DTD/svg11.dtd">
<!-- Uploaded to: SVG Repo, www.svgrepo.com, Transformed by: SVG Repo Mixer Tools -->
<svg fill="#a997cb" height="800px" width="800px" version="1.1" id="Layer_1" xmlns="http://www.w3.org/2000/svg" xmlns:xlink="http://www.w3.org/1999/xlink" viewBox="0 0 512.001 512.001" xml:space="preserve">
<g id="SVGRepo_bgCarrier" stroke-width="0"/>
<g id="SVGRepo_tracerCarrier" stroke-linecap="round" stroke-linejoin="round"/>
<g id="SVGRepo_iconCarrier"> <g transform="translate(1 1)"> <g> <path d="M509.177,207.061l-40.247-51.223c-0.002-0.002-0.003-0.004-0.004-0.006l-51.954-66.127 c-2.343-14.213-25.228-30.161-80.651-47.053l-23.106-23.106l-2.078-4.151c-5.016-10.044-15.293-16.394-26.531-16.394H225.41 c-11.247,0-21.526,6.36-26.546,16.424l-2.063,4.132l-23.096,23.096c-55.369,16.875-78.264,32.809-80.644,47.012l-51.986,66.168 c-0.002,0.002-0.003,0.004-0.005,0.006L0.824,207.061c-3.006,3.826-2.21,9.388,1.75,12.216l59.733,42.667 c2.619,1.871,6.068,2.109,8.919,0.615l47.266-24.757v45.033v132.062v87.569c0,4.713,3.821,8.533,8.533,8.533h119.441h136.533 c4.713,0,8.533-3.82,8.533-8.533V391.533V255v-17.188l47.24,24.747c2.851,1.494,6.3,1.256,8.92-0.615l59.733-42.667 C511.387,216.449,512.183,210.887,509.177,207.061z M370.218,73.044c7.752,3.424,13.927,6.695,18.682,9.765 c0.009,0.006,0.019,0.012,0.028,0.018c0.443,0.286,0.867,0.57,1.285,0.852c0.102,0.069,0.209,0.139,0.31,0.209 c0.402,0.274,0.788,0.547,1.167,0.817c0.261,0.187,0.511,0.373,0.763,0.559c0.169,0.125,0.34,0.25,0.503,0.374 c0.193,0.146,0.38,0.291,0.567,0.437c0.228,0.178,0.453,0.355,0.671,0.531c0.14,0.113,0.275,0.223,0.41,0.334 c1.099,0.909,2.07,1.796,2.904,2.659c1.026,1.061,1.717,1.944,2.154,2.648c0.092,0.15,0.18,0.298,0.255,0.438 c0.01,0.02,0.018,0.038,0.028,0.057c0.064,1.449,0.45,2.909,1.169,4.214c0.102,0.186,0.235,0.355,0.351,0.534 c0.141,0.217,0.264,0.443,0.425,0.648l48.305,61.479c-9.694,6.49-21.098,10.046-33.06,10.046 c-32.991,0-59.733-26.74-59.733-59.733C357.401,96.331,361.989,83.466,370.218,73.044z M400.217,91.276 c-0.003,0.016-0.004,0.032-0.007,0.048c-0.035,0.188-0.062,0.376-0.084,0.564c0.025-0.227,0.035-0.291,0.081-0.558 C400.211,91.311,400.213,91.298,400.217,91.276z M201.204,39.295l26.599,57.631l-19.336,9.67l-20.321-54.243L201.204,39.295z M308.835,39.31l13.044,13.044l-20.321,54.243l-19.319-9.662L308.835,39.31z M225.41,16.068h59.196 c4.773,0,9.137,2.697,11.267,6.961l0.86,1.717l-33.475,72.535c-0.039,0.085-0.068,0.172-0.104,0.258l-8.131,17.622l-41.733-90.422 l0.846-1.694C216.268,18.769,220.633,16.068,225.41,16.068z M139.793,73.052c8.222,10.411,12.807,23.279,12.807,36.878 c0,32.993-26.743,59.733-59.733,59.733c-11.963,0-23.367-3.556-33.06-10.046l47.948-61.025c0.207-0.229,0.396-0.471,0.577-0.72 c0.034-0.047,0.065-0.097,0.098-0.144c0.135-0.195,0.263-0.394,0.382-0.6c0.047-0.081,0.09-0.162,0.134-0.244 c0.097-0.181,0.187-0.365,0.27-0.553c0.043-0.095,0.085-0.19,0.124-0.286c0.078-0.193,0.145-0.389,0.209-0.588 c0.029-0.09,0.062-0.178,0.088-0.27c0.081-0.284,0.148-0.572,0.199-0.865c0.011-0.066,0.015-0.134,0.025-0.2 c0.035-0.235,0.063-0.472,0.078-0.711c0.007-0.107,0.007-0.215,0.009-0.323c0.001-0.023,0.002-0.047,0.002-0.07 c0.334-0.78,1.118-1.925,2.565-3.421c0.578-0.597,1.219-1.207,1.923-1.826c0.027-0.023,0.054-0.047,0.081-0.07 c0.245-0.215,0.506-0.432,0.767-0.649c0.235-0.195,0.473-0.39,0.725-0.591c0.095-0.076,0.192-0.153,0.289-0.229 c1.181-0.926,2.482-1.863,3.9-2.811c0.235-0.156,0.467-0.312,0.709-0.47c0.14-0.091,0.284-0.183,0.426-0.275 C126.06,79.646,132.158,76.424,139.793,73.052z M109.81,91.276c0.056,0.324,0.063,0.365,0.091,0.616 c-0.023-0.202-0.052-0.405-0.09-0.608c-0.001-0.006-0.001-0.012-0.002-0.017C109.809,91.271,109.809,91.272,109.81,91.276z M135.56,289.784c2.85-0.431,5.684-0.651,8.508-0.651c32.987,0,59.733,26.746,59.733,59.733c0,32.987-26.746,59.733-59.733,59.733 c-2.824,0-5.658-0.219-8.508-0.651V289.784z M255.606,493.933c4.141-28.946,29.038-51.2,59.128-51.2s54.987,22.254,59.128,51.2 H255.606z M374.467,382.395c-28.946-4.141-51.2-29.038-51.2-59.128c0-30.09,22.254-54.987,51.2-59.128V382.395z M442.045,245.005 l-55.084-28.856c-5.682-2.976-12.493,1.145-12.493,7.559v23.242c-38.396,4.247-68.267,36.79-68.267,76.317 c0,39.527,29.871,72.07,68.267,76.317v54.632c-14.08-17.408-35.602-28.549-59.733-28.549c-39.527,0-72.07,29.871-76.317,68.267 H135.56v-68.776c2.831,0.331,5.667,0.51,8.508,0.51c42.413,0,76.8-34.387,76.8-76.8s-34.387-76.8-76.8-76.8 c-2.841,0-5.676,0.178-8.508,0.51v-48.877c0-6.414-6.811-10.535-12.493-7.559l-55.11,28.865l-48.194-34.424l29.487-37.529 c12.688,8.806,27.778,13.677,43.617,13.677c42.416,0,76.8-34.381,76.8-76.8c0-15.789-4.834-30.824-13.543-43.446 c5.19-1.898,10.832-3.818,16.936-5.755l22.753,60.734c1.778,4.746,7.275,6.905,11.808,4.638l27.339-13.673l12.315,26.681 c1.907,4.133,6.294,5.681,10.06,4.646c2.26-0.619,4.297-2.169,5.442-4.648l12.31-26.671l27.321,13.664 c4.533,2.267,10.03,0.107,11.808-4.638l22.753-60.735c6.098,1.935,11.735,3.853,16.921,5.749 c-8.715,12.628-13.552,27.66-13.552,43.452c0,42.419,34.384,76.8,76.8,76.8c15.839,0,30.929-4.871,43.617-13.677l29.487,37.529 L442.045,245.005z"/> </g> </g> </g>
</svg>